<svg width="50" height="51" viewBox="0 0 50 51" fill="none" xmlns="http://www.w3.org/2000/svg">
<path d="M35.7374 38.4286C35.7374 33.5911 30.9249 29.6786 25 29.6786C19.075 29.6786 14.2625 33.5911 14.2625 38.4286M25 25.9286C26.6576 25.9286 28.2473 25.2701 29.4194 24.098C30.5915 22.9259 31.2499 21.3362 31.2499 19.6786C31.2499 18.021 30.5915 16.4313 29.4194 15.2592C28.2473 14.0871 26.6576 13.4286 25 13.4286C23.3423 13.4286 21.7526 14.0871 20.5805 15.2592C19.4084 16.4313 18.75 18.021 18.75 19.6786C18.75 21.3362 19.4084 22.9259 20.5805 24.098C21.7526 25.2701 23.3423 25.9286 25 25.9286Z" stroke="black" stroke-width="1.5" stroke-linecap="round" stroke-linejoin="round"/>
</svg>
