<svg width="50" height="51" viewBox="0 0 50 51" fill="none" xmlns="http://www.w3.org/2000/svg">
<g clip-path="url(#clip0_31_2221)">
<path d="M25 12.5952C22.3629 12.5952 19.7851 13.3772 17.5924 14.8423C15.3998 16.3074 13.6908 18.3898 12.6816 20.8261C11.6725 23.2625 11.4084 25.9434 11.9229 28.5298C12.4374 31.1162 13.7072 33.492 15.5719 35.3567C17.4366 37.2214 19.8124 38.4912 22.3988 39.0057C24.9852 39.5202 27.6661 39.2561 30.1025 38.247C32.5388 37.2378 34.6212 35.5288 36.0863 33.3362C37.5514 31.1435 38.3334 28.5657 38.3334 25.9286C38.3334 22.3924 36.9286 19.001 34.4281 16.5005C31.9276 14 28.5362 12.5952 25 12.5952ZM25 37.5952C22.6926 37.5952 20.4369 36.911 18.5184 35.6291C16.5998 34.3471 15.1045 32.525 14.2214 30.3932C13.3384 28.2614 13.1074 25.9156 13.5575 23.6525C14.0077 21.3894 15.1188 19.3106 16.7504 17.679C18.3821 16.0474 20.4609 14.9362 22.724 14.4861C24.9871 14.0359 27.3329 14.267 29.4647 15.15C31.5965 16.033 33.4186 17.5284 34.7005 19.4469C35.9825 21.3655 36.6667 23.6211 36.6667 25.9286C36.6667 29.0228 35.4375 31.9902 33.2496 34.1782C31.0617 36.3661 28.0942 37.5952 25 37.5952Z" fill="black"/>
<path d="M25.2416 18.3619C24.3386 18.347 23.4434 18.5311 22.6195 18.9013C21.7957 19.2714 21.0635 19.8185 20.475 20.5036C20.3932 20.5793 20.3275 20.6708 20.2817 20.7724C20.2359 20.874 20.2109 20.9838 20.2083 21.0952C20.2083 21.1981 20.2289 21.2998 20.269 21.3945C20.3091 21.4892 20.3678 21.5749 20.4416 21.6464C20.5155 21.7179 20.603 21.7739 20.6989 21.8109C20.7948 21.8479 20.8972 21.8653 21 21.8619C21.2201 21.8565 21.4306 21.7705 21.5916 21.6202C22.037 21.0983 22.5902 20.6791 23.2131 20.3913C23.836 20.1036 24.5138 19.9543 25.2 19.9536C27.1666 19.9536 28.3916 21.2202 28.3916 22.7952V22.8369C28.3916 24.6786 26.925 25.7036 24.6083 25.8786C24.5145 25.8822 24.4225 25.9056 24.3384 25.9472C24.2542 25.9889 24.1798 26.0478 24.1201 26.1202C24.0603 26.1925 24.0164 26.2767 23.9914 26.3672C23.9664 26.4577 23.9608 26.5524 23.975 26.6452C23.975 26.6452 23.975 28.5786 23.975 28.9369C23.9957 29.1432 24.0926 29.3343 24.2467 29.473C24.4008 29.6117 24.601 29.688 24.8083 29.6869H24.9C25.1062 29.6662 25.2974 29.5693 25.4361 29.4152C25.5748 29.2611 25.651 29.0609 25.65 28.8536V27.1369C28.15 26.7869 30.175 25.4702 30.175 22.7369V22.6952C30.15 20.1952 28.2 18.3619 25.2416 18.3619Z" fill="black"/>
<path d="M24.8167 33.8036C25.392 33.8036 25.8584 33.3372 25.8584 32.7619C25.8584 32.1866 25.392 31.7202 24.8167 31.7202C24.2414 31.7202 23.775 32.1866 23.775 32.7619C23.775 33.3372 24.2414 33.8036 24.8167 33.8036Z" fill="black"/>
</g>
<defs>
<clipPath id="clip0_31_2221">
<rect width="30" height="30" fill="white" transform="translate(10 10.9286)"/>
</clipPath>
</defs>
</svg>
