<svg width="24" height="24" viewBox="0 0 24 24" fill="none" xmlns="http://www.w3.org/2000/svg">
<path d="M8.56756 20.3596L8.56875 20.3607C9.48921 21.2517 10.72 21.7498 12.001 21.75L8.56756 20.3596ZM8.56756 20.3596C5.73532 17.6363 2.7503 13.4392 3.85857 8.55081L8.56756 20.3596ZM15.4226 20.3614L15.4244 20.3596C18.257 17.636 21.2417 13.4489 20.1334 8.56081L15.4226 20.3614ZM15.4226 20.3614C14.4695 21.2872 13.236 21.75 12.0011 21.75L15.4226 20.3614ZM12.001 2.25C15.3669 2.25 19.1471 4.22167 20.1334 8.56057L3.85863 8.55057C4.84461 4.21277 8.63375 2.25 11.991 2.25H12.001ZM10.6042 13.6822C11.047 13.8656 11.5217 13.96 12.001 13.96C12.969 13.96 13.8974 13.5754 14.5819 12.8909C15.2664 12.2064 15.651 11.278 15.651 10.31C15.651 9.34196 15.2664 8.41357 14.5819 7.72906C13.8974 7.04455 12.969 6.66 12.001 6.66C11.5217 6.66 11.047 6.75441 10.6042 6.93784C10.1614 7.12127 9.759 7.39013 9.42006 7.72906C9.08113 8.06799 8.81227 8.47037 8.62884 8.91321C8.44541 9.35604 8.351 9.83068 8.351 10.31C8.351 10.7893 8.44541 11.264 8.62884 11.7068C8.81227 12.1496 9.08113 12.552 9.42006 12.8909C9.759 13.2299 10.1614 13.4987 10.6042 13.6822Z" fill="#AAAAAA" stroke="#AAAAAA"/>
</svg>
