<svg width="30" height="31" viewBox="0 0 30 31" fill="none" xmlns="http://www.w3.org/2000/svg">
<path d="M2.5 3.42857H4.675C6.025 3.42857 7.0875 4.59107 6.975 5.92857L5.9375 18.3786C5.89699 18.8609 5.95711 19.3464 6.11404 19.8043C6.27098 20.2621 6.52131 20.6824 6.84917 21.0385C7.17704 21.3946 7.57529 21.6786 8.01869 21.8727C8.46209 22.0668 8.94098 22.1667 9.425 22.1661H22.7375C24.5375 22.1661 26.1125 20.6911 26.25 18.9036L26.925 9.52857C27.075 7.45357 25.5 5.76607 23.4125 5.76607H7.275M11.25 10.9286H26.25M20.3125 28.4286C20.7269 28.4286 21.1243 28.264 21.4174 27.9709C21.7104 27.6779 21.875 27.2805 21.875 26.8661C21.875 26.4517 21.7104 26.0542 21.4174 25.7612C21.1243 25.4682 20.7269 25.3036 20.3125 25.3036C19.8981 25.3036 19.5007 25.4682 19.2076 25.7612C18.9146 26.0542 18.75 26.4517 18.75 26.8661C18.75 27.2805 18.9146 27.6779 19.2076 27.9709C19.5007 28.264 19.8981 28.4286 20.3125 28.4286ZM10.3125 28.4286C10.7269 28.4286 11.1243 28.264 11.4174 27.9709C11.7104 27.6779 11.875 27.2805 11.875 26.8661C11.875 26.4517 11.7104 26.0542 11.4174 25.7612C11.1243 25.4682 10.7269 25.3036 10.3125 25.3036C9.8981 25.3036 9.50067 25.4682 9.20765 25.7612C8.91462 26.0542 8.75 26.4517 8.75 26.8661C8.75 27.2805 8.91462 27.6779 9.20765 27.9709C9.50067 28.264 9.8981 28.4286 10.3125 28.4286Z" stroke="white" stroke-width="1.5" stroke-miterlimit="10" stroke-linecap="round" stroke-linejoin="round"/>
</svg>
